<?xml version="1.0" encoding="UTF-8" standalone="no"?>
<!-- Created with Inkscape (http://www.inkscape.org/) -->
<svg
   xmlns:svg="http://www.w3.org/2000/svg"
   xmlns="http://www.w3.org/2000/svg"
   xmlns:xlink="http://www.w3.org/1999/xlink"
   xmlns:inkscape="http://www.inkscape.org/namespaces/inkscape"
   version="1.0"
   width="650"
   height="650"
   id="svg2">
  <defs
     id="defs4">
    <linearGradient
       id="linearGradient3237">
      <stop
         id="stop3239"
         style="stop-color:#ffffff;stop-opacity:1"
         offset="0" />
      <stop
         id="stop3241"
         style="stop-color:#ffffff;stop-opacity:0.59821427"
         offset="1" />
    </linearGradient>
    <filter
       id="filter3233">
      <feGaussianBlur
         id="feGaussianBlur3235"
         stdDeviation="8.0400684"
         inkscape:collect="always" />
    </filter>
    <linearGradient
       x1="24.28125"
       y1="426.00711"
       x2="627.71875"
       y2="228.00711"
       id="linearGradient3243"
       xlink:href="#linearGradient3237"
       gradientUnits="userSpaceOnUse" />
  </defs>
  <g
     transform="translate(-905.48071,-332.31359)"
     id="layer1">
    <path
       d="M 1324.9182,542.93147 C 1309.8048,542.96277 1302.1866,543.0226 1300.9807,543.11897 C 1284.6902,544.42071 1270.3753,549.13886 1260.637,556.43147 C 1251.3751,563.36735 1244.972,573.19141 1242.8557,583.71272 C 1241.8339,588.79257 1241.7606,590.92164 1241.8557,615.71272 C 1241.9385,637.28339 1242.0055,639.76057 1242.4182,641.83772 C 1243.3221,646.38766 1245.0127,650.8911 1247.1682,654.40022 C 1257.1663,670.67719 1276.1459,679.87933 1302.762,681.40022 C 1305.5713,681.56074 1337.3281,681.67913 1387.8557,681.68147 L 1468.4495,681.68147 L 1468.4495,703.18147 L 1468.4495,724.68147 L 1355.137,724.68147 L 1241.7932,724.68147 L 1241.7932,726.30647 C 1241.7932,733.53104 1244.4836,741.0956 1249.387,747.68147 C 1252.3198,751.62065 1258.0429,756.82333 1262.4495,759.58772 C 1272.8685,766.12381 1286.8099,770.26108 1302.887,771.55647 C 1304.2955,771.66997 1345.2542,771.73942 1393.9182,771.71272 C 1489.4202,771.66038 1483.5614,771.7332 1492.262,770.40022 C 1511.1355,767.50868 1526.0409,760.40637 1533.637,750.68147 C 1537.9338,745.18048 1540.2758,739.54575 1541.5745,731.61897 C 1541.9632,729.24653 1542.0421,726.0616 1542.137,704.52522 C 1542.266,675.26641 1542.1532,672.58205 1540.4182,666.99397 C 1539.1394,662.87529 1536.4482,658.2972 1533.1057,654.52522 C 1524.1173,644.38176 1509.2541,637.67173 1489.5432,634.83772 C 1481.2544,633.64594 1484.5931,633.67414 1398.9807,633.58772 L 1317.6057,633.52522 L 1317.6057,612.40022 L 1317.6057,591.27522 L 1429.9182,591.27522 L 1542.1995,591.27522 L 1542.0745,590.18147 C 1542.0115,589.58285 1541.8981,587.87916 1541.8245,586.40022 C 1541.2419,574.69665 1535.8857,563.91615 1527.4495,557.43147 C 1519.3514,551.20663 1507.8449,546.69133 1494.4807,544.52522 C 1484.3649,542.88564 1492.1517,543.0239 1393.7932,542.93147 C 1362.6193,542.90218 1340.0316,542.90017 1324.9182,542.93147 z M 1068.4182,543.21272 C 1023.7061,543.21422 979.03558,543.33888 976.51198,543.58772 C 970.17158,544.21289 964.11188,545.37822 958.32444,547.11897 C 952.80972,548.77771 944.94236,552.31886 940.35569,555.18147 C 929.13366,562.18532 921.60382,572.19738 919.23069,583.30647 C 918.78767,585.38029 918.76194,588.90432 918.76194,657.46272 L 918.76194,729.43147 L 919.35569,732.02522 C 920.39657,736.72516 922.04255,740.73354 924.48069,744.52522 C 934.29629,759.78999 952.49706,769.32549 976.01198,771.52522 C 977.20918,771.6372 1019.1582,771.73217 1069.2307,771.71272 C 1154.7229,771.67953 1160.4841,771.63822 1163.7307,771.21272 C 1181.2361,768.91839 1192.1017,764.85848 1201.7932,757.02522 C 1208.7441,751.40706 1214.1065,743.46129 1216.1057,735.77522 C 1217.4966,730.42778 1217.512,730.08896 1217.512,703.21272 L 1217.512,678.33772 L 1180.762,678.33772 L 1144.012,678.33772 L 1144.012,701.77522 L 1144.012,725.18147 L 1068.5745,725.18147 L 993.16818,725.18147 L 993.16818,658.49397 L 993.16818,591.77522 L 1068.3245,591.77522 L 1143.4807,591.77522 L 1143.4807,613.18147 L 1143.4807,634.61897 L 1150.0745,634.43147 C 1157.4612,634.23451 1161.0408,633.97137 1165.8557,633.24397 C 1177.1426,631.53877 1186.7068,628.13626 1195.4807,622.71272 C 1196.9597,621.79852 1199.1197,620.50111 1200.2932,619.80647 C 1204.713,617.19023 1211.6726,611.23443 1213.762,608.30647 C 1217.7093,602.77477 1219.2515,595.26639 1218.262,586.18147 C 1217.6363,580.43716 1216.4997,576.39124 1214.1995,571.68147 C 1210.0451,563.17485 1203.3246,556.87572 1193.0432,551.83772 C 1183.5356,547.17891 1174.2312,544.81313 1160.637,543.58772 C 1157.8785,543.33907 1113.1303,543.21122 1068.4182,543.21272 z"
       id="path3245"
       style="fill:#a0a0a0;fill-opacity:1" />
    <path
       d="M 1324.9182,554.93148 C 1309.8048,554.96278 1302.1866,555.02261 1300.9807,555.11898 C 1284.6902,556.42072 1270.3753,561.13887 1260.637,568.43148 C 1251.3751,575.36736 1244.972,585.19143 1242.8557,595.71273 C 1241.8339,600.79258 1241.7606,602.92166 1241.8557,627.71273 C 1241.9385,649.2834 1242.0055,651.76059 1242.4182,653.83773 C 1243.3221,658.38767 1245.0127,662.8911 1247.1682,666.40023 C 1257.1663,682.6772 1276.1459,691.87934 1302.762,693.40023 C 1305.5713,693.56075 1337.3281,693.67915 1387.8557,693.68148 L 1468.4495,693.68148 L 1468.4495,715.18148 L 1468.4495,736.68148 L 1355.137,736.68148 L 1241.7932,736.68148 L 1241.7932,738.30648 C 1241.7932,745.53105 1244.4836,753.0956 1249.387,759.68148 C 1252.3198,763.62066 1258.0429,768.82333 1262.4495,771.58773 C 1272.8685,778.12382 1286.8099,782.26109 1302.887,783.55648 C 1304.2955,783.66998 1345.2542,783.73942 1393.9182,783.71273 C 1489.4202,783.66039 1483.5614,783.73322 1492.262,782.40023 C 1511.1355,779.50869 1526.0409,772.40637 1533.637,762.68148 C 1537.9338,757.18049 1540.2758,751.54576 1541.5745,743.61898 C 1541.9632,741.24654 1542.0421,738.06161 1542.137,716.52523 C 1542.266,687.26642 1542.1532,684.58205 1540.4182,678.99398 C 1539.1394,674.8753 1536.4482,670.29722 1533.1057,666.52523 C 1524.1173,656.38177 1509.2541,649.67175 1489.5432,646.83773 C 1481.2544,645.64595 1484.5931,645.67414 1398.9807,645.58773 L 1317.6057,645.52523 L 1317.6057,624.40023 L 1317.6057,603.27523 L 1429.9182,603.27523 L 1542.1995,603.27523 L 1542.0745,602.18148 C 1542.0115,601.58286 1541.8981,599.87917 1541.8245,598.40023 C 1541.2419,586.69666 1535.8857,575.91615 1527.4495,569.43148 C 1519.3514,563.20664 1507.8449,558.69134 1494.4807,556.52523 C 1484.3649,554.88565 1492.1517,555.02391 1393.7932,554.93148 C 1362.6193,554.90218 1340.0316,554.90018 1324.9182,554.93148 z M 1068.4182,555.21273 C 1023.7061,555.21423 979.03558,555.33889 976.51194,555.58773 C 970.17157,556.2129 964.11188,557.37822 958.32444,559.11898 C 952.80972,560.77772 944.94236,564.31888 940.35569,567.18148 C 929.13366,574.18533 921.60382,584.19738 919.23069,595.30648 C 918.78767,597.3803 918.76194,600.90434 918.76194,669.46273 L 918.76194,741.43148 L 919.35569,744.02523 C 920.39657,748.72517 922.04255,752.73355 924.48069,756.52523 C 934.29629,771.79 952.49706,781.32549 976.01194,783.52523 C 977.20917,783.63721 1019.1582,783.73216 1069.2307,783.71273 C 1154.7229,783.67954 1160.4841,783.63823 1163.7307,783.21273 C 1181.2361,780.9184 1192.1017,776.85847 1201.7932,769.02523 C 1208.7441,763.40707 1214.1065,755.46131 1216.1057,747.77523 C 1217.4966,742.42779 1217.512,742.08895 1217.512,715.21273 L 1217.512,690.33773 L 1180.762,690.33773 L 1144.012,690.33773 L 1144.012,713.77523 L 1144.012,737.18148 L 1068.5745,737.18148 L 993.16819,737.18148 L 993.16819,670.49398 L 993.16819,603.77523 L 1068.3245,603.77523 L 1143.4807,603.77523 L 1143.4807,625.18148 L 1143.4807,646.61898 L 1150.0745,646.43148 C 1157.4612,646.23452 1161.0408,645.97138 1165.8557,645.24398 C 1177.1426,643.53878 1186.7068,640.13628 1195.4807,634.71273 C 1196.9597,633.79853 1199.1197,632.50111 1200.2932,631.80648 C 1204.713,629.19024 1211.6726,623.23444 1213.762,620.30648 C 1217.7093,614.77478 1219.2515,607.26641 1218.262,598.18148 C 1217.6363,592.43717 1216.4997,588.39125 1214.1995,583.68148 C 1210.0451,575.17486 1203.3246,568.87573 1193.0432,563.83773 C 1183.5356,559.17892 1174.2312,556.81315 1160.637,555.58773 C 1157.8785,555.33907 1113.1303,555.21123 1068.4182,555.21273 z"
       id="path3195"
       style="fill:#000000;fill-opacity:1;filter:url(#filter3233)" />
    <path
       d="M 419.4375,210.625 C 404.32407,210.6563 396.7059,210.71613 395.5,210.8125 C 379.2095,212.11424 364.89463,216.83239 355.15625,224.125 C 345.89435,231.06088 339.49129,240.88494 337.375,251.40625 C 336.3532,256.4861 336.2799,258.61517 336.375,283.40625 C 336.4578,304.97692 336.52481,307.4541 336.9375,309.53125 C 337.8414,314.08119 339.53201,318.58463 341.6875,322.09375 C 351.6856,338.37072 370.66515,347.57286 397.28125,349.09375 C 400.09055,349.25427 431.8474,349.37266 482.375,349.375 L 562.96875,349.375 L 562.96875,370.875 L 562.96875,392.375 L 449.65625,392.375 L 336.3125,392.375 L 336.3125,394 C 336.3125,401.22457 339.00285,408.78913 343.90625,415.375 C 346.83905,419.31418 352.56216,424.51686 356.96875,427.28125 C 367.38775,433.81734 381.32916,437.95461 397.40625,439.25 C 398.81475,439.3635 439.77351,439.43295 488.4375,439.40625 C 583.9395,439.35391 578.08065,439.42673 586.78125,438.09375 C 605.65475,435.20221 620.56022,428.0999 628.15625,418.375 C 632.45305,412.87401 634.79505,407.23928 636.09375,399.3125 C 636.48245,396.94006 636.56134,393.75513 636.65625,372.21875 C 636.78525,342.95994 636.67248,340.27558 634.9375,334.6875 C 633.6587,330.56882 630.96749,325.99073 627.625,322.21875 C 618.6366,312.07529 603.77337,305.36526 584.0625,302.53125 C 575.7737,301.33947 579.11241,301.36767 493.5,301.28125 L 412.125,301.21875 L 412.125,280.09375 L 412.125,258.96875 L 524.4375,258.96875 L 636.71875,258.96875 L 636.59375,257.875 C 636.53075,257.27638 636.41736,255.57269 636.34375,254.09375 C 635.76115,242.39018 630.40497,231.60968 621.96875,225.125 C 613.87065,218.90016 602.36418,214.38486 589,212.21875 C 578.8842,210.57917 586.67099,210.71743 488.3125,210.625 C 457.1386,210.59571 434.55093,210.5937 419.4375,210.625 z M 162.9375,210.90625 C 118.22542,210.90775 73.554884,211.03241 71.03125,211.28125 C 64.69088,211.90642 58.631189,213.07175 52.84375,214.8125 C 47.32903,216.47124 39.461668,220.01239 34.875,222.875 C 23.65297,229.87885 16.12313,239.89091 13.75,251 C 13.30698,253.07382 13.28125,256.59785 13.28125,325.15625 L 13.28125,397.125 L 13.875,399.71875 C 14.91588,404.41869 16.56186,408.42707 19,412.21875 C 28.8156,427.48352 47.016373,437.01902 70.53125,439.21875 C 71.72848,439.33073 113.67751,439.4257 163.75,439.40625 C 249.2422,439.37306 255.00341,439.33175 258.25,438.90625 C 275.7554,436.61192 286.62101,432.55201 296.3125,424.71875 C 303.2634,419.10059 308.62579,411.15482 310.625,403.46875 C 312.0159,398.12131 312.03124,397.78249 312.03125,370.90625 L 312.03125,346.03125 L 275.28125,346.03125 L 238.53125,346.03125 L 238.53125,369.46875 L 238.53125,392.875 L 163.09375,392.875 L 87.6875,392.875 L 87.6875,326.1875 L 87.6875,259.46875 L 162.84375,259.46875 L 238,259.46875 L 238,280.875 L 238,302.3125 L 244.59375,302.125 C 251.98045,301.92804 255.56009,301.6649 260.375,300.9375 C 271.6619,299.2323 281.22611,295.82979 290,290.40625 C 291.479,289.49205 293.63901,288.19464 294.8125,287.5 C 299.2323,284.88376 306.19186,278.92796 308.28125,276 C 312.22855,270.4683 313.77084,262.95992 312.78125,253.875 C 312.15555,248.13069 311.01895,244.08477 308.71875,239.375 C 304.56435,230.86838 297.84391,224.56925 287.5625,219.53125 C 278.0549,214.87244 268.75045,212.50666 255.15625,211.28125 C 252.39775,211.0326 207.64958,210.90475 162.9375,210.90625 z"
       transform="translate(905.48071,332.31359)"
       id="path2409"
       style="fill:url(#linearGradient3243);fill-opacity:1" />
  </g>
</svg>
